<svg width="54" height="53" viewBox="0 0 54 53" fill="none" xmlns="http://www.w3.org/2000/svg">
<path d="M25.1119 50.1723C24.9117 49.8113 24.6222 49.4938 24.312 49.2168C24.035 48.9688 23.7393 48.7447 23.4281 48.5476C23.3192 48.475 23.2061 48.4076 23.093 48.3422C27.0934 48.336 31.0959 48.3277 35.0963 48.3183C35.3422 48.3183 35.6016 48.3121 35.8516 48.282H35.8578C35.8599 48.282 35.862 48.282 35.8651 48.28C35.8713 48.2789 35.8776 48.2769 35.8838 48.2758C38.0386 48.2706 40.1923 48.2582 42.3461 48.2395C42.3492 48.2426 42.3533 48.2447 42.3575 48.2468H42.3689C42.3928 48.2561 42.4187 48.2644 42.4426 48.2706C42.4882 48.2862 42.5339 48.3017 42.5795 48.3121C42.593 48.3183 42.6034 48.3215 42.6168 48.3235C42.6231 48.3256 42.6293 48.3277 42.6366 48.3298C42.6926 48.3453 42.7497 48.3598 42.8077 48.3713C42.8824 48.3889 42.9582 48.4034 43.0318 48.4169C43.1086 48.4293 43.1843 48.4408 43.258 48.4511C43.3151 48.4605 43.3742 48.4667 43.4302 48.4729C43.4997 48.4823 43.5692 48.4885 43.6388 48.4947C43.7394 48.504 43.839 48.5123 43.9417 48.5186C43.9676 48.5206 43.9915 48.5238 44.0174 48.5238C44.0786 48.5279 44.1398 48.53 44.1979 48.5321C44.2436 48.5341 44.2892 48.5362 44.3349 48.5362C44.4314 48.5383 44.5268 48.5404 44.6223 48.5404C44.6959 48.5404 44.7685 48.5404 44.8422 48.5383C45.2489 48.5321 45.6556 48.4968 46.0591 48.448C46.1961 48.4667 46.333 48.4823 46.4689 48.4947C47.4296 48.5819 48.4017 48.5466 49.353 48.3889C49.5284 48.3598 49.7141 48.3215 49.8448 48.2001C49.9734 48.0787 50.0243 47.8971 50.0512 47.7218C50.2038 46.7601 49.7846 45.7278 49.0045 45.1448C48.6611 44.8875 48.2513 44.709 47.9722 44.3823C47.7419 44.1115 47.6236 43.7639 47.5105 43.4268C47.0105 41.9287 46.5094 40.4316 46.0093 38.9346C45.8112 38.3412 44.7882 36.0515 45.586 34.0575C46.6754 31.3342 47.7792 29.4004 48.0873 27.5682C48.1029 27.2093 48.0977 26.8814 48.0853 26.5661C48.0853 26.5609 48.0873 26.5557 48.0873 26.5505V26.5484C48.1268 26.2154 48.1351 25.8803 48.1133 25.5431C48.0334 24.2899 47.5354 23.0719 47.6049 21.8197C47.6724 20.5862 48.2699 19.4896 49.0314 18.4884C49.5688 18.5237 50.0865 18.6938 50.6239 18.726C51.6375 18.7893 52.6273 18.2799 53.2694 17.4987C53.4977 17.2227 53.6803 16.9115 53.8068 16.5795C53.9002 16.3378 53.9635 16.0826 53.9874 15.8222C53.9957 15.7433 53.9998 15.6634 53.9998 15.5825C54.0091 14.6934 53.6803 13.8375 53.4842 12.9723C53.091 11.2231 53.3234 9.79457 53.091 8.86087C52.8472 7.87943 52.0141 7.16877 51.3896 6.35955C51.3315 6.28071 51.2723 6.20289 51.2184 6.12197C51.4985 4.92994 51.7548 3.73376 51.9073 2.52201C51.9114 2.49192 51.9166 2.45873 51.9207 2.42865C51.6552 2.28133 51.3283 2.43694 51.07 2.59567C50.5586 2.90898 50.0585 3.23994 49.5709 3.59267C49.2794 3.79705 48.9899 4.01179 48.7078 4.23381C48.5853 4.17779 48.4619 4.12488 48.3353 4.08131C48.2357 4.045 48.1351 4.0118 48.0355 3.98172C48.0075 3.63002 47.9784 3.27934 47.9463 2.92661C47.857 1.95036 47.7398 0.975173 47.5551 0.00930268C47.4389 -0.0145588 47.331 0.00930048 47.2283 0.0601357C47.0655 0.137945 46.9171 0.285263 46.7957 0.427395C46.2168 1.10174 45.6732 1.80408 45.168 2.53549C44.9532 2.84153 44.7468 3.15485 44.5465 3.47231H44.5444C44.477 3.57917 44.4116 3.68811 44.3463 3.79705H44.3442C44.0029 3.83543 43.6782 3.89042 43.369 3.95578C41.7143 4.3054 40.5264 4.9818 39.7587 5.62191H39.7566C39.6622 5.69765 39.5761 5.77444 39.4952 5.85017C39.3146 6.02031 39.1258 6.22262 38.936 6.44879C38.7077 6.71852 38.4774 7.02248 38.2512 7.3389C38.1579 7.47066 38.0635 7.60554 37.9701 7.74249C37.7616 8.04957 37.5634 8.36079 37.3787 8.65854C37.1069 9.09842 36.8694 9.50927 36.6909 9.83606C36.639 9.93151 36.5913 10.0207 36.5498 10.1006C36.3869 10.2708 36.2241 10.4399 36.0601 10.61C35.8018 10.8797 35.5425 11.1474 35.2841 11.4171C34.4967 12.2367 33.7093 13.0574 32.9198 13.8749C32.6998 14.1031 32.4799 14.3334 32.2579 14.5627C32.0421 14.7889 31.8252 15.015 31.6053 15.2412C31.6053 15.2412 31.6053 15.2412 31.6053 15.2433C31.3096 15.5503 31.014 15.8585 30.7183 16.1656C30.6197 16.2683 30.5222 16.3679 30.4247 16.4685C30.3853 16.509 30.3458 16.5484 30.3064 16.5857C30.0263 16.8638 29.7306 17.1252 29.3955 17.3358C29.2773 17.4095 29.158 17.4769 29.0324 17.536H29.0293C28.6403 17.7301 28.2253 17.8711 27.8113 18.0081C27.773 18.0205 27.7356 18.034 27.6962 18.0475C27.2833 18.1865 26.8673 18.3318 26.4564 18.4863C26.0321 18.6451 25.6099 18.8132 25.1949 18.9916C24.5641 19.2593 23.9437 19.5529 23.343 19.8765C22.8565 20.1401 22.3803 20.4233 21.9228 20.7293C21.2878 21.1557 20.6851 21.6278 20.128 22.1517C20.0221 22.2544 19.9153 22.3561 19.8126 22.4608C19.6953 22.5801 19.5802 22.7005 19.4692 22.8239C18.8104 23.5439 18.2356 24.3407 17.7221 25.1696C17.6401 25.2993 17.5613 25.43 17.4835 25.5608C17.4638 25.596 17.442 25.6303 17.4223 25.6655C16.9762 26.4239 16.5736 27.2051 16.2147 28.0019C15.8692 28.7655 15.56 29.5415 15.2862 30.3331C14.866 31.5407 14.5247 32.7783 14.2446 34.0357C14.092 34.7184 13.9593 35.4103 13.842 36.1044C13.7486 36.6594 13.6636 37.2186 13.5899 37.7768C13.5329 38.2187 13.481 38.6628 13.4333 39.1068C13.3638 39.7614 13.3046 40.4161 13.2548 41.0707C13.231 41.3902 13.2092 41.7129 13.1895 42.0345C13.1698 42.3696 13.15 42.7047 13.1345 43.0398C13.1303 43.1041 13.1282 43.1674 13.1262 43.2307C13.122 43.3137 13.1179 43.3956 13.1148 43.4786H13.1127C13.0847 43.4983 13.0567 43.5181 13.0266 43.5357C12.1406 44.1115 11.0378 44.3532 9.97025 44.4206C8.62156 44.5036 7.26352 44.347 5.91691 44.458C4.96037 44.5379 4.02252 44.7516 3.09815 45.012C2.5981 45.151 2.09908 45.3035 1.60318 45.4581C1.17263 45.5909 0.726522 45.7341 0.404911 46.0505C0.146585 46.3026 0.0241715 46.6522 0.0220966 47.0091C0.0210591 47.0122 0.0220966 47.0153 0.0220966 47.0174C0.0158719 47.0412 0.0106821 47.0661 0.00653225 47.0921C-0.00695465 47.1751 0.00445633 47.2622 0.00549378 47.3483C0.00653124 47.4054 -0.00280686 47.4604 0.00445532 47.5174C0.0252044 47.6731 0.0667016 47.8266 0.133099 47.9667C0.14866 47.9988 0.163183 48.0299 0.182894 48.06C0.198456 48.0901 0.212989 48.1192 0.230626 48.1451C0.307398 48.2665 0.394535 48.3796 0.494131 48.4843C0.50243 48.4947 0.513844 48.5061 0.522144 48.5144C0.525256 48.5176 0.528378 48.5196 0.53149 48.5227C0.554314 48.5455 0.582322 48.5642 0.606184 48.5881C0.712004 48.6898 0.819894 48.7894 0.938164 48.8755C0.981737 48.9107 1.02947 48.9429 1.07512 48.9761C1.07719 48.9782 1.07926 48.9782 1.08133 48.9803C1.08341 48.9813 1.08549 48.9823 1.08756 48.9844C1.16849 49.0384 1.2494 49.0933 1.33136 49.1431C1.52744 49.2655 1.7256 49.3786 1.9279 49.4844C3.56604 50.3507 5.43864 50.7419 7.29465 50.8746C9.37993 51.0251 11.4725 50.8643 13.563 50.7948C15.1316 50.7398 16.7178 50.7398 18.2533 51.051C18.3249 51.0645 18.3996 51.079 18.4711 51.0946C20.2327 51.4857 21.8989 52.297 23.6916 52.4951C23.9831 52.5283 24.285 52.5429 24.56 52.4433C25.1731 52.2233 25.4729 51.4712 25.3536 50.829C25.31 50.5966 25.225 50.3767 25.1119 50.1723Z" fill="url(#c1)"/>
<defs>
<radialGradient id="c1" cx="0" cy="0" r="1" gradientUnits="userSpaceOnUse" gradientTransform="translate(27 26.26) rotate(-38.5505) scale(42.1371 58.4013)">
<stop offset="0.0730374" stop-color="#1B9096"/>
<stop offset="0.633184" stop-color="#5F64F0"/>
</radialGradient>
</defs>
</svg>
