<svg width="66" height="52" viewBox="0 0 66 52" fill="none" xmlns="http://www.w3.org/2000/svg">
<path d="M1.58449 4.13276C2.30191 4.57813 3.09831 4.97742 3.55136 5.68936C3.83438 6.13473 3.95724 6.65909 4.07352 7.17357C4.20735 7.75168 4.34008 8.33306 4.4761 8.91116C4.66259 9.6955 4.84909 10.4755 5.04106 11.2565C5.69705 13.9518 6.38704 16.6383 7.11543 19.316C7.17138 19.5156 7.22732 19.7219 7.36006 19.8809C7.5257 20.0762 7.7791 20.1694 8.01824 20.2572C8.63255 20.4875 9.22932 20.7618 9.81291 21.0613C9.9961 21.1556 10.1705 21.2664 10.3504 21.3662C10.7453 21.5878 11.1348 21.816 11.511 22.0672C11.7107 22.1999 11.9037 22.3436 12.0979 22.4851C12.438 22.7331 12.7692 22.9898 13.0896 23.2618C13.2815 23.4242 13.4702 23.5887 13.6545 23.7587C13.7817 23.8772 13.8991 24.0066 14.0231 24.1284C14.0044 24.7789 13.9968 25.4305 14.0023 26.081C14.0132 27.3996 14.0944 28.7324 14.4312 30.0049C14.4794 30.187 14.5167 30.3724 14.576 30.5512C14.6747 30.843 14.7888 31.1293 14.9149 31.4091C15.2945 32.2482 15.7892 33.0359 16.3202 33.7906C15.5347 36.2006 14.8491 38.6524 13.8574 40.9791C13.6797 41.4003 13.49 41.8182 13.2881 42.2296C12.8241 43.1675 12.2986 44.0758 11.715 44.9446C11.2697 45.6061 10.7848 46.2511 10.1716 46.7623C9.66808 47.1814 9.08779 47.5061 8.63912 47.9832C8.38353 48.2575 8.1762 48.602 8.09064 48.964C8.02591 49.2327 8.02922 49.508 8.13014 49.7691C8.44497 50.5787 9.46843 50.8036 10.335 50.8486C11.7523 50.9253 13.3068 50.7926 14.3478 49.8251C14.916 49.2996 15.2627 48.5855 15.6093 47.8922C16.318 46.4672 17.0771 45.0521 17.9645 43.7347C17.9974 43.6842 18.0293 43.6338 18.0633 43.5855C18.637 42.754 19.2579 41.9598 19.9588 41.2325C20.4327 40.7366 20.9362 40.2759 21.4507 39.825L21.4529 39.8261C21.601 39.9819 21.7502 40.13 21.9049 40.2847C22.1725 40.5589 22.4391 40.8266 22.7067 41.0932C22.7067 41.0932 22.7067 41.0997 22.7133 41.0997C22.7177 41.1052 22.7232 41.1096 22.7276 41.1151C23.1905 43.0304 24.3983 44.7757 26.1008 45.7794C24.2996 45.1399 22.3404 46.4277 20.447 46.1743C19.7471 46.0811 19.0757 45.7773 18.3704 45.7882C17.2383 45.8058 16.1951 46.7513 16.0667 47.8757C16.0327 48.1741 16.0679 48.5054 16.2719 48.727C16.5012 48.9738 16.873 49.0155 17.2098 49.0364C18.4724 49.1142 19.7373 49.123 21.0021 49.1055C20.9999 49.1099 20.9966 49.112 20.9955 49.1164C20.8913 49.3325 20.8221 49.5662 20.7925 49.8086C20.7585 50.107 20.7925 50.4383 20.9977 50.6588C21.2269 50.9067 21.5977 50.9473 21.9334 50.9681C28.0392 51.3444 34.1636 50.3319 40.2671 50.6489C40.4624 50.6588 40.6588 50.6698 40.854 50.6829C41.091 50.6994 41.3444 50.7158 41.5517 50.6006C41.8238 50.4536 41.9433 50.1366 42.0212 49.8361C42.0267 49.8174 42.0289 49.7988 42.0344 49.779C42.0607 49.6704 42.0848 49.5618 42.109 49.4521C42.3624 49.5903 42.618 49.7264 42.8823 49.8437C42.9646 49.8788 43.0469 49.9161 43.1325 49.9479C45.2167 50.7685 47.5807 50.2748 49.6858 49.5135C50.8168 49.1055 51.9302 48.6151 52.9087 47.9163C55.1202 46.3389 56.4793 43.8071 57.2637 41.2062C58.0447 38.6041 58.319 35.8836 58.8115 33.2103C59.3052 30.5391 60.0489 27.845 61.6319 25.6357C62.1968 24.8491 62.8736 24.124 63.7161 23.6414C64.2361 23.3485 64.8164 23.1444 65.2541 22.7364C65.4351 22.5685 65.5843 22.3436 65.6698 22.11C65.7335 21.9279 65.7653 21.7392 65.7444 21.5582C65.7313 21.4057 65.6797 21.2598 65.5865 21.1315C65.2486 20.6598 64.5575 20.6411 63.9849 20.7399C61.4717 21.1743 59.3523 22.97 57.991 25.1267C57.4798 25.9373 57.0608 26.7919 56.7086 27.6771C56.1196 29.1559 55.7093 30.7158 55.3473 32.2669C54.7659 34.7483 54.2788 37.2746 53.2839 39.6221C53.0151 40.2572 52.7113 40.8727 52.3723 41.4727C51.6263 42.7946 50.7093 44.0254 49.654 45.1213C49.3589 45.4306 49.0386 45.7334 48.6952 45.9977C48.1325 46.4288 47.5061 46.7568 46.8073 46.8325C46.4289 46.872 46.0537 46.8369 45.6884 46.7415C45.0302 46.5758 44.4039 46.2325 43.8444 45.8354C43.0688 45.2858 42.3591 44.6112 41.8051 43.8411V43.8389C41.804 43.648 41.804 43.4571 41.8029 43.2662V42.3909C41.7985 41.7129 41.7985 41.0284 41.8742 40.3571C41.9027 40.1037 41.94 39.8525 41.9949 39.6046C42.1836 38.7456 42.5489 37.9306 42.6772 37.0585C42.7145 36.7974 42.7299 36.533 42.7299 36.2698L42.7288 36.2709V36.2687C42.7288 36.2039 42.7288 36.1315 42.7222 36.0668C42.7156 35.798 42.6871 35.5304 42.652 35.2627C42.6465 35.2134 42.6322 35.1662 42.6267 35.1168C42.5642 34.6857 42.4852 34.2557 42.403 33.8301C41.1842 28.9145 38.999 26.5681 36.9916 25.2441C35.5962 24.3182 34.2853 23.8882 33.4319 23.4318C33.3661 23.3989 33.3013 23.3594 33.2355 23.3211C31.9389 22.5312 30.6938 21.6515 29.4542 20.7717C29.4542 20.7717 29.4543 20.7717 29.4477 20.7651C28.6524 20.198 27.8307 19.6177 27.2636 18.8158C26.8336 18.2026 26.5791 17.518 26.4233 16.7875C26.3937 16.6503 26.3871 16.5077 26.3663 16.3684C26.3257 16.1084 26.2818 15.8495 26.261 15.5841C26.2851 15.5698 26.3125 15.5599 26.3366 15.5457C26.6405 15.3614 26.9411 15.1585 27.1495 14.871C27.4237 14.4893 27.5038 14.0022 27.5565 13.536C27.6903 12.3919 27.7199 11.2379 27.6453 10.0893C27.6453 10.0871 27.6453 10.0871 27.6453 10.0871V10.0838C27.7627 9.90063 27.8713 9.71086 27.9722 9.5167C28.9321 7.70998 29.3106 5.59831 29.0286 3.57329C27.8614 4.20186 26.691 4.83042 25.5205 5.46008C25.3987 5.527 25.2726 5.59282 25.1508 5.65974C23.6874 4.61761 21.9202 3.9967 20.1267 3.90565C20.0356 3.71368 19.9347 3.52721 19.8195 3.3495C18.9112 1.88284 17.3678 0.812203 15.7662 0.0925865C15.7848 1.79838 15.8463 3.50417 15.9505 5.20667C15.9582 5.35038 15.9658 5.4919 15.9768 5.63561C15.6861 5.89998 15.4042 6.17421 15.1234 6.44846L14.9402 6.63274C14.7482 6.82471 14.5584 7.0189 14.3862 7.22732C14.1591 7.50157 13.9562 7.79445 13.807 8.12025C13.445 8.91227 13.4406 9.78985 13.4384 10.674C13.3386 10.8693 13.1554 11.3914 13.3715 12.1977C13.3452 12.3919 13.3079 12.5838 13.264 12.7736C13.2607 12.789 13.2585 12.8054 13.2497 12.8208C13.2201 12.9491 13.174 13.072 13.1367 13.1971C12.8745 13.0577 12.6036 12.936 12.3469 12.7868C12.3206 12.7703 12.291 12.755 12.2646 12.7385C11.9048 12.5257 11.545 12.2964 11.2455 12.0035C10.8111 11.5768 10.5106 11.036 10.244 10.4897C9.67907 9.34339 9.22052 8.14438 8.72249 6.96623C8.72249 6.96294 8.72249 6.95747 8.7192 6.95527C8.27931 5.90547 7.8109 4.87098 7.21086 3.90126C6.75013 3.15751 6.217 2.45656 5.62024 1.81374C5.04981 1.20053 4.40701 0.633376 3.63912 0.294411C2.92499 -0.0193244 2.08031 -0.112562 1.35302 0.163876C1.30255 0.185815 1.25099 0.204451 1.20382 0.228584C0.443611 0.579617 -0.108148 1.42211 0.0180044 2.24813C0.145254 3.08293 0.868164 3.68738 1.58449 4.13276Z" fill="url(#c5)"/>
<defs>
<radialGradient id="c5" cx="0" cy="0" r="1" gradientUnits="userSpaceOnUse" gradientTransform="translate(32.8754 25.5266) rotate(-32.4638) scale(47.5562 61.247)">
<stop offset="0.0730374" stop-color="#1B9096"/>
<stop offset="0.633184" stop-color="#5F64F0"/>
</radialGradient>
</defs>
</svg>
