<svg width="57" height="71" viewBox="0 0 57 71" fill="none" xmlns="http://www.w3.org/2000/svg">
<path d="M56.7262 59.4466C56.2928 58.1038 55.2627 56.9074 54.4817 55.6453C53.8192 54.5734 53.335 53.4508 52.9674 52.3092C52.6346 51.2991 52.3985 50.2731 52.1933 49.259C51.9223 47.8813 51.8486 46.6581 51.5697 44.9238C51.7092 44.5911 51.8297 44.2504 51.9452 43.9137C54.0363 37.8979 55.4799 31.6581 56.2579 25.3415C56.2579 25.3375 56.2579 25.3375 56.2619 25.3335C56.9354 19.8527 57.1097 14.3102 56.777 8.79749C56.6873 7.34611 56.5638 5.89073 56.2968 4.45827C56.0796 3.28979 55.7698 2.14423 55.3673 1.02854C55.2358 0.660963 55.0655 0.266471 54.7208 0.0881603C54.1948 -0.182792 53.5293 0.208705 53.2852 0.746624C53.0451 1.28056 53.1029 1.90016 53.1646 2.4839C53.591 6.67668 53.6757 10.8993 53.4167 15.1031C53.0451 21.2543 51.9413 27.3577 50.1341 33.2489C49.8392 34.1973 49.4955 35.1964 48.7244 35.8269C48.2791 36.1945 47.7491 36.3888 47.1843 36.4854C47.1843 36.4854 47.1803 36.4854 47.1763 36.4854C43.0499 35.1306 38.6286 34.8677 34.282 35.0609C29.783 35.2621 25.3198 35.9395 20.8328 36.342C19.993 36.4157 19.0754 36.4625 18.3831 35.9823C17.9258 35.6686 17.6399 35.1735 17.3689 34.6933C16.6984 33.489 16.0638 32.2697 15.4641 31.0315V31.0275C15.476 30.7685 15.4681 30.5085 15.4481 30.2495C15.4441 30.2146 15.4412 30.1758 15.4372 30.1409C15.3166 28.9685 14.9102 27.8458 14.4848 26.7421C14.3881 26.4791 14.2836 26.2161 14.1481 25.9651C13.9697 25.6354 13.7336 25.3375 13.4547 25.0855L13.4537 25.0845C13.1767 23.8662 13.0372 22.6061 12.6836 21.4077C12.6079 21.1397 12.5202 20.8768 12.4166 20.6168C12.3309 20.4056 12.2193 20.1795 12.0111 20.0838C11.6594 20.7522 11.3247 21.4286 11.0049 22.113L11.0039 22.115C10.8764 21.5302 10.725 20.9525 10.5038 20.3956C10.4181 20.1835 10.3076 19.9573 10.0993 19.8617C9.44681 21.1039 8.85803 22.379 8.32205 23.6769C8.32006 23.6769 8.31908 23.6769 8.31809 23.6769H8.3141C8.05508 23.6889 7.79506 23.7198 7.54002 23.7696C6.98611 23.8821 6.44814 24.0834 5.96397 24.3693C5.95301 24.3772 5.94504 24.3812 5.93308 24.3892C4.79538 25.0745 3.97849 26.2161 2.83979 26.9094C2.27492 27.2491 1.6443 27.4782 1.09039 27.8378C0.893136 27.9663 0.706842 28.1208 0.544456 28.2951H0.540467C0.4787 28.3608 0.416934 28.4305 0.366125 28.5033C0.160901 28.7712 0.0254225 29.081 0.00250904 29.4167C-0.00844955 29.603 0.018442 29.7923 0.0453404 29.9826C0.0572952 30.0752 0.0722319 30.1678 0.0881717 30.2615C0.0921567 30.2924 0.0991206 30.3272 0.103106 30.3581C0.180812 30.8343 0.285428 31.3174 0.463755 31.7547L0.466746 31.7587C0.645073 32.208 0.905085 32.6104 1.28366 32.9122C1.67119 33.218 2.1474 33.3924 2.61563 33.5478C3.95856 34.004 5.32537 34.3915 6.70317 34.7202C6.86257 36.9187 7.02895 39.3802 7.18735 41.5757C7.26107 42.5549 7.33879 43.5491 7.47428 44.5333V44.5442C7.6795 46.0922 8.02021 47.6104 8.68968 48.9801C8.84011 49.2978 9.01445 49.6076 9.20473 49.9055C9.36313 50.7721 9.52552 51.6318 9.68392 52.4945C9.85129 53.389 10.0177 54.2875 10.1721 55.1851C10.5945 57.5967 10.9462 60.0353 11.0508 62.5516C11.0707 62.9769 11.0777 63.4143 10.9541 63.8555C10.8535 64.2002 10.6792 64.5329 10.5048 64.8577C10.1103 65.6018 9.71579 66.3409 9.32028 67.0801C9.23959 67.2385 9.14995 67.3979 9.01845 67.5214C8.77835 67.7495 8.45356 67.7844 8.15569 67.866C7.24214 68.1101 6.38638 68.9379 6.06858 69.8782C6.01877 70.0297 5.9799 70.2 6.05761 70.3126C6.12635 70.4092 6.25885 70.4281 6.38637 70.4361C7.50515 70.5367 8.64684 70.5516 9.80446 70.4859C10.0635 70.4749 10.3305 70.451 10.5865 70.3315C10.8346 70.215 11.0468 70.0097 11.244 69.8015C11.9802 69.0236 12.576 68.125 13.1648 67.2345C13.8303 66.2244 14.4957 65.2183 15.1622 64.2082C15.3515 63.9213 15.5458 63.6274 15.7082 63.3256C15.7779 63.6354 15.8277 63.9442 15.8008 64.254C15.7699 64.5797 15.6613 64.8925 15.5527 65.1984C15.4641 65.4583 15.3714 65.7174 15.2778 65.9773C15.1273 66.4147 14.9719 66.852 14.8175 67.2853C14.7677 67.4357 14.7129 67.5871 14.6083 67.6997C14.4111 67.9158 14.0933 67.9507 13.8113 68.0244C12.9476 68.2565 12.2582 69.0345 12.1307 69.9171C12.1118 70.0565 12.1078 70.2189 12.2084 70.3235C12.2931 70.4162 12.4325 70.4321 12.561 70.4441C13.7027 70.5367 14.8484 70.5516 15.9901 70.4899C16.2461 70.4749 16.5091 70.455 16.7373 70.3434C16.9624 70.2309 17.1368 70.0416 17.2912 69.8434C17.872 69.1162 18.2864 68.2685 18.6929 67.4327C19.1571 66.4834 19.6174 65.536 20.0826 64.5877C20.2799 64.1773 20.4811 63.7629 20.5698 63.3176C20.6824 62.7677 20.6166 62.2029 20.5509 61.6491C20.4731 60.9876 20.3955 60.3332 20.3187 59.6747C20.2988 59.5014 20.2759 59.3231 20.256 59.1488C20.2062 58.7304 20.1593 58.313 20.1095 57.8946C19.982 56.8148 19.8575 55.7081 19.989 54.6432C22.908 54.5466 25.796 53.8074 28.6333 53.0523C31.7924 52.2126 34.9973 51.3489 38.253 51.334C39.1904 53.7646 40.638 55.9979 42.488 57.8289C42.8327 58.1695 43.1893 58.4943 43.5609 58.8081C44.3968 59.5083 45.3183 60.1588 45.8642 61.1032C46.7738 62.6831 46.4142 64.6564 46.0306 66.4415C46.0077 66.5461 45.9838 66.6537 45.9569 66.7623C45.8293 67.2972 45.663 67.8272 45.2874 68.2216C44.7146 68.8253 43.6347 69.2556 43.808 70.0685C43.9405 70.6841 44.7106 70.8694 45.3372 70.9312C46.445 71.0398 47.6714 71.1055 48.5471 70.4162C49.0034 70.0565 49.2863 69.5495 49.4955 68.9957C49.619 68.6669 49.7157 68.3223 49.8083 67.9856C50.3353 66.0849 50.8573 64.1803 51.3804 62.2806C51.4621 61.9788 51.5468 61.673 51.6165 61.3672C52.7123 62.8953 52.8279 64.7501 52.8827 66.4256C52.9016 67.0681 52.9096 67.7415 52.5809 68.2137C52.1545 68.8223 51.1791 69.2517 51.5547 70.0685C51.8366 70.6841 52.4374 70.8694 53.08 70.9312C54.2137 71.0398 55.461 71.1095 56.1613 70.4162C56.7501 69.8394 56.7999 68.8761 56.8268 67.9746C56.8776 66.066 56.9314 64.1574 56.9862 62.2487C57.0131 61.3323 57.032 60.3949 56.7262 59.4466" fill="url(#c2)"/>
<defs>
<radialGradient id="c2" cx="0" cy="0" r="1" gradientUnits="userSpaceOnUse" gradientTransform="translate(28.5 35.5) rotate(-45.5833) scale(49.7012 70.6537)">
<stop offset="0.0730374" stop-color="#1B9096"/>
<stop offset="0.633184" stop-color="#5F64F0"/>
</radialGradient>
</defs>
</svg>
